<?xml version="1.0" encoding="utf-8"?>
<!-- Generator: Adobe Illustrator 15.0.0, SVG Export Plug-In . SVG Version: 6.00 Build 0)  -->
<!DOCTYPE svg PUBLIC "-//W3C//DTD SVG 1.1//EN" "http://www.w3.org/Graphics/SVG/1.1/DTD/svg11.dtd">
<svg version="1.1" id="Meteocons" xmlns="http://www.w3.org/2000/svg" xmlns:xlink="http://www.w3.org/1999/xlink" x="0px" y="0px"
	 width="39px" height="39px" viewBox="0 0 39 39" enable-background="new 0 0 39 39" xml:space="preserve">
<g>
	<path fill-rule="evenodd" clip-rule="evenodd" fill="#F8CC06" d="M19.5,9C13.711,9,9,13.711,9,19.5S13.711,30,19.5,30
		S30,25.289,30,19.5S25.289,9,19.5,9z M19.5,27c-4.143,0-7.5-3.357-7.5-7.5s3.357-7.5,7.5-7.5s7.5,3.357,7.5,7.5S23.643,27,19.5,27z
		"/>
	<g>
		<path fill-rule="evenodd" clip-rule="evenodd" fill="#F8CC06" d="M19.5,0C18.672,0,18,0.672,18,1.5v3C18,5.328,18.672,6,19.5,6
			S21,5.328,21,4.5v-3C21,0.672,20.328,0,19.5,0z"/>
		<path fill-rule="evenodd" clip-rule="evenodd" fill="#F8CC06" d="M19.5,33c-0.828,0-1.5,0.672-1.5,1.5v3
			c0,0.828,0.672,1.5,1.5,1.5s1.5-0.672,1.5-1.5v-3C21,33.672,20.328,33,19.5,33z"/>
	</g>
	<g>
		<path fill-rule="evenodd" clip-rule="evenodd" fill="#F8CC06" d="M33.287,5.711c-0.586-0.586-1.535-0.586-2.121,0l-2.121,2.121
			c-0.586,0.586-0.586,1.535,0,2.121s1.535,0.586,2.121,0l2.121-2.121C33.873,7.246,33.873,6.297,33.287,5.711z"/>
		<path fill-rule="evenodd" clip-rule="evenodd" fill="#F8CC06" d="M9.955,29.047c-0.586-0.586-1.535-0.588-2.121,0l-2.121,2.121
			c-0.586,0.586-0.586,1.535,0,2.121s1.535,0.586,2.121,0l2.121-2.121C10.541,30.58,10.541,29.633,9.955,29.047z"/>
	</g>
	<g>
		<path fill-rule="evenodd" clip-rule="evenodd" fill="#F8CC06" d="M0,19.5C0,20.328,0.672,21,1.5,21h3C5.328,21,6,20.328,6,19.5
			S5.328,18,4.5,18h-3C0.672,18,0,18.672,0,19.5z"/>
		<path fill-rule="evenodd" clip-rule="evenodd" fill="#F8CC06" d="M33,19.5c0,0.828,0.672,1.5,1.5,1.5h3c0.828,0,1.5-0.672,1.5-1.5
			S38.328,18,37.5,18h-3C33.672,18,33,18.672,33,19.5z"/>
	</g>
	<g>
		<path fill-rule="evenodd" clip-rule="evenodd" fill="#F8CC06" d="M5.711,5.711c-0.586,0.586-0.586,1.535,0,2.121l2.121,2.121
			c0.586,0.586,1.535,0.586,2.121,0s0.586-1.535,0-2.121L7.832,5.711C7.246,5.125,6.297,5.125,5.711,5.711z"/>
		<path fill-rule="evenodd" clip-rule="evenodd" fill="#F8CC06" d="M29.047,29.045c-0.586,0.586-0.588,1.535,0,2.121l2.121,2.121
			c0.586,0.586,1.535,0.586,2.121,0s0.586-1.535,0-2.121l-2.121-2.121C30.58,28.459,29.633,28.459,29.047,29.045z"/>
	</g>
</g>
</svg>
