<?xml version="1.0" encoding="utf-8"?>
<!-- Generator: Adobe Illustrator 15.0.0, SVG Export Plug-In . SVG Version: 6.00 Build 0)  -->
<!DOCTYPE svg PUBLIC "-//W3C//DTD SVG 1.1//EN" "http://www.w3.org/Graphics/SVG/1.1/DTD/svg11.dtd">
<svg version="1.1" id="Info" xmlns="http://www.w3.org/2000/svg" xmlns:xlink="http://www.w3.org/1999/xlink" x="0px" y="0px"
	 width="48px" height="51.6px" viewBox="0 0 48 51.6" enable-background="new 0 0 48 51.6" xml:space="preserve">
<g>
	<path fill="#6DA346" d="M42.425,37.964L31.2,33.956v-5.533c3.438-2.819,5.7-7.512,5.7-12.823c0-0.171-0.019-0.34-0.022-0.511
		C36.131,15.361,35.3,15.6,34.5,15.6c-3.973,0-6.718-0.637-9.027-3.729C23.425,14.027,19.804,15.6,16.5,15.6
		c-1.558,0-4.133-0.998-5.905-1.795c-0.057,0.591-0.095,1.19-0.095,1.795c0,5.611,2.528,10.523,6.3,13.275v5.081L5.573,37.964
		C2.239,39.154,0,42.333,0,45.877V51.6h48v-5.723C48,42.333,45.759,39.154,42.425,37.964z"/>
	<path fill="#6DA346" d="M24.472,9.216l1.016-1.948l1.09,1.906c1.97,3.445,4.035,4.026,7.922,4.026c0.622,0,1.473-0.311,2.15-0.594
		C35.464,5.433,30.111,0,23.7,0c-6.033,0-11.123,4.813-12.691,11.356c1.848,0.872,4.416,1.844,5.491,1.844
		C19.64,13.2,23.366,11.339,24.472,9.216z"/>
</g>
</svg>
